<svg id="visual" viewBox="0 0 960 540" width="960" height="540" xmlns="http://www.w3.org/2000/svg" xmlns:xlink="http://www.w3.org/1999/xlink" version="1.1"><rect x="0" y="0" width="960" height="540" fill="#001424"></rect><path d="M0 314L20 307.7C40 301.3 80 288.7 120 288C160 287.3 200 298.7 240 305.7C280 312.7 320 315.3 360 313C400 310.7 440 303.3 480 307C520 310.7 560 325.3 600 324.2C640 323 680 306 720 305C760 304 800 319 840 317.3C880 315.7 920 297.3 940 288.2L960 279L960 541L940 541C920 541 880 541 840 541C800 541 760 541 720 541C680 541 640 541 600 541C560 541 520 541 480 541C440 541 400 541 360 541C320 541 280 541 240 541C200 541 160 541 120 541C80 541 40 541 20 541L0 541Z" fill="#fa69ab"></path><path d="M0 350L20 351C40 352 80 354 120 350.7C160 347.3 200 338.7 240 338.7C280 338.7 320 347.3 360 347.3C400 347.3 440 338.7 480 331.2C520 323.7 560 317.3 600 314.2C640 311 680 311 720 313.7C760 316.3 800 321.7 840 322.8C880 324 920 321 940 319.5L960 318L960 541L940 541C920 541 880 541 840 541C800 541 760 541 720 541C680 541 640 541 600 541C560 541 520 541 480 541C440 541 400 541 360 541C320 541 280 541 240 541C200 541 160 541 120 541C80 541 40 541 20 541L0 541Z" fill="#f65b95"></path><path d="M0 357L20 356C40 355 80 353 120 359.8C160 366.7 200 382.3 240 390.2C280 398 320 398 360 389.3C400 380.7 440 363.3 480 361.2C520 359 560 372 600 378.7C640 385.3 680 385.7 720 386.2C760 386.7 800 387.3 840 382.3C880 377.3 920 366.7 940 361.3L960 356L960 541L940 541C920 541 880 541 840 541C800 541 760 541 720 541C680 541 640 541 600 541C560 541 520 541 480 541C440 541 400 541 360 541C320 541 280 541 240 541C200 541 160 541 120 541C80 541 40 541 20 541L0 541Z" fill="#f14d7f"></path><path d="M0 384L20 388.3C40 392.7 80 401.3 120 400.2C160 399 200 388 240 388.2C280 388.3 320 399.7 360 400.2C400 400.7 440 390.3 480 384.7C520 379 560 378 600 384.7C640 391.3 680 405.7 720 405.5C760 405.3 800 390.7 840 384.3C880 378 920 380 940 381L960 382L960 541L940 541C920 541 880 541 840 541C800 541 760 541 720 541C680 541 640 541 600 541C560 541 520 541 480 541C440 541 400 541 360 541C320 541 280 541 240 541C200 541 160 541 120 541C80 541 40 541 20 541L0 541Z" fill="#e94068"></path><path d="M0 440L20 441.7C40 443.3 80 446.7 120 448.8C160 451 200 452 240 448.3C280 444.7 320 436.3 360 435.8C400 435.3 440 442.7 480 443.5C520 444.3 560 438.7 600 437.3C640 436 680 439 720 437.2C760 435.3 800 428.7 840 423.5C880 418.3 920 414.7 940 412.8L960 411L960 541L940 541C920 541 880 541 840 541C800 541 760 541 720 541C680 541 640 541 600 541C560 541 520 541 480 541C440 541 400 541 360 541C320 541 280 541 240 541C200 541 160 541 120 541C80 541 40 541 20 541L0 541Z" fill="#df3452"></path><path d="M0 461L20 462.7C40 464.3 80 467.7 120 466.2C160 464.7 200 458.3 240 458.2C280 458 320 464 360 469.2C400 474.3 440 478.7 480 478C520 477.3 560 471.7 600 467.7C640 463.7 680 461.3 720 459.7C760 458 800 457 840 455C880 453 920 450 940 448.5L960 447L960 541L940 541C920 541 880 541 840 541C800 541 760 541 720 541C680 541 640 541 600 541C560 541 520 541 480 541C440 541 400 541 360 541C320 541 280 541 240 541C200 541 160 541 120 541C80 541 40 541 20 541L0 541Z" fill="#d42b3b"></path><path d="M0 508L20 505.3C40 502.7 80 497.3 120 494.3C160 491.3 200 490.7 240 490.5C280 490.3 320 490.7 360 494.2C400 497.7 440 504.3 480 507.2C520 510 560 509 600 507C640 505 680 502 720 501.3C760 500.7 800 502.3 840 504C880 505.7 920 507.3 940 508.2L960 509L960 541L940 541C920 541 880 541 840 541C800 541 760 541 720 541C680 541 640 541 600 541C560 541 520 541 480 541C440 541 400 541 360 541C320 541 280 541 240 541C200 541 160 541 120 541C80 541 40 541 20 541L0 541Z" fill="#c72424"></path></svg>